<mxfile host="65bd71144e">
    <diagram id="jk-mDYcw6juqVpxIaa4l" name="第 1 页">
        <mxGraphModel dx="3298" dy="2060" grid="1" gridSize="10" guides="1" tooltips="1" connect="1" arrows="1" fold="1" page="1" pageScale="1" pageWidth="1920" pageHeight="1200" background="#ffffff" math="0" shadow="0">
            <root>
                <mxCell id="0"/>
                <mxCell id="1" parent="0"/>
                <mxCell id="489" value="" style="rounded=0;whiteSpace=wrap;html=1;labelBackgroundColor=none;fontSize=24;strokeWidth=2;fillColor=#FFFFFF;" parent="1" vertex="1">
                    <mxGeometry x="-90" y="-40" width="1060" height="870" as="geometry"/>
                </mxCell>
                <mxCell id="173" value="&lt;font style=&quot;font-size: 18px&quot;&gt;业务模块&lt;/font&gt;" style="text;html=1;align=center;verticalAlign=middle;resizable=0;points=[];autosize=1;strokeColor=none;" parent="1" vertex="1">
                    <mxGeometry x="130" y="620" width="90" height="20" as="geometry"/>
                </mxCell>
                <mxCell id="328" value="&lt;font style=&quot;font-size: 36px&quot;&gt;业务&lt;br&gt;架&lt;br&gt;构&lt;br&gt;支撑&lt;br&gt;&lt;/font&gt;" style="rounded=0;whiteSpace=wrap;html=1;fontColor=#ffffff;fillColor=#0050ef;align=center;strokeColor=#001DBC;" parent="1" vertex="1">
                    <mxGeometry x="-60" y="-10" width="70" height="810" as="geometry"/>
                </mxCell>
                <mxCell id="435" style="edgeStyle=none;html=1;exitX=1;exitY=0.5;exitDx=0;exitDy=0;exitPerimeter=0;fontSize=24;fontColor=#000000;fillColor=default;" parent="1" edge="1">
                    <mxGeometry relative="1" as="geometry">
                        <mxPoint x="787.5294117647059" y="610" as="targetPoint"/>
                        <mxPoint x="898" y="640" as="sourcePoint"/>
                    </mxGeometry>
                </mxCell>
                <mxCell id="533" value="&lt;span style=&quot;font-size: 24px&quot;&gt;&lt;b&gt;应用层&lt;br&gt;&lt;/b&gt;&lt;/span&gt;" style="text;html=1;strokeColor=#314354;fillColor=#647687;align=center;verticalAlign=middle;whiteSpace=wrap;rounded=0;dashed=1;fontColor=#ffffff;" vertex="1" parent="1">
                    <mxGeometry x="50" y="-10" width="890" height="60" as="geometry"/>
                </mxCell>
                <mxCell id="536" value="" style="group" vertex="1" connectable="0" parent="1">
                    <mxGeometry x="50" y="50" width="890" height="170" as="geometry"/>
                </mxCell>
                <mxCell id="434" value="" style="group;fillColor=#dae8fc;strokeColor=#6c8ebf;gradientColor=#7ea6e0;container=0;strokeWidth=2;" parent="536" vertex="1" connectable="0">
                    <mxGeometry width="890" height="170" as="geometry"/>
                </mxCell>
                <mxCell id="535" value="" style="group" vertex="1" connectable="0" parent="536">
                    <mxGeometry x="67.5" y="20.33" width="755" height="129.34000000000003" as="geometry"/>
                </mxCell>
                <mxCell id="504" value="JSSDK" style="rounded=1;whiteSpace=wrap;html=1;fillColor=#99CCFF;strokeColor=#6c8ebf;fontSize=24;gradientColor=#007FFF;" parent="535" vertex="1">
                    <mxGeometry x="210" width="135" height="129.34" as="geometry"/>
                </mxCell>
                <mxCell id="264" value="&lt;span style=&quot;font-size: 24px&quot;&gt;化蝶&lt;/span&gt;" style="rounded=1;whiteSpace=wrap;html=1;fillColor=#99CCFF;strokeColor=#6c8ebf;fontSize=24;gradientColor=#007FFF;" parent="535" vertex="1">
                    <mxGeometry width="135" height="129.34" as="geometry"/>
                </mxCell>
                <mxCell id="503" value="&lt;span style=&quot;font-size: 24px&quot;&gt;...&lt;/span&gt;" style="rounded=1;whiteSpace=wrap;html=1;fillColor=#99CCFF;strokeColor=#6c8ebf;fontSize=24;gradientColor=#007FFF;" parent="535" vertex="1">
                    <mxGeometry x="415" width="135" height="129.34" as="geometry"/>
                </mxCell>
                <mxCell id="534" value="&lt;span style=&quot;font-size: 24px&quot;&gt;...&lt;/span&gt;" style="rounded=1;whiteSpace=wrap;html=1;fillColor=#99CCFF;strokeColor=#6c8ebf;fontSize=24;gradientColor=#007FFF;" vertex="1" parent="535">
                    <mxGeometry x="620" width="135" height="129.34" as="geometry"/>
                </mxCell>
                <mxCell id="537" value="" style="group" vertex="1" connectable="0" parent="1">
                    <mxGeometry x="50" y="320" width="890" height="480" as="geometry"/>
                </mxCell>
                <mxCell id="532" value="&lt;font size=&quot;1&quot;&gt;&lt;b style=&quot;font-size: 24px&quot;&gt;Domain领域层sdk&lt;br&gt;&lt;/b&gt;&lt;/font&gt;" style="text;html=1;strokeColor=#314354;fillColor=#647687;align=center;verticalAlign=middle;whiteSpace=wrap;rounded=0;dashed=1;fontColor=#ffffff;" vertex="1" parent="537">
                    <mxGeometry width="890" height="60" as="geometry"/>
                </mxCell>
                <mxCell id="410" value="" style="rounded=0;whiteSpace=wrap;html=1;strokeWidth=2;strokeColor=#d6b656;fillColor=#fff2cc;gradientColor=#ffd966;" parent="537" vertex="1">
                    <mxGeometry y="60" width="890" height="420" as="geometry"/>
                </mxCell>
                <mxCell id="514" value="" style="group" parent="537" vertex="1" connectable="0">
                    <mxGeometry x="25" y="90" width="835" height="370" as="geometry"/>
                </mxCell>
                <mxCell id="506" value="" style="group" parent="514" vertex="1" connectable="0">
                    <mxGeometry y="260" width="835" height="110" as="geometry"/>
                </mxCell>
                <mxCell id="452" value="" style="rounded=1;whiteSpace=wrap;html=1;dashed=1;labelBackgroundColor=none;fontSize=24;strokeColor=#6c8ebf;strokeWidth=2;fillColor=#dae8fc;" parent="506" vertex="1">
                    <mxGeometry width="835" height="110" as="geometry"/>
                </mxCell>
                <mxCell id="453" value="&lt;div style=&quot;text-align: left&quot;&gt;&lt;font face=&quot;helvetica neue, helvetica, pingfang sc, microsoft yahei, source han sans sc, noto sans cjk sc, wenquanyi micro hei, sans-serif&quot;&gt;&lt;span style=&quot;font-size: 18px&quot;&gt;paas sdk&lt;/span&gt;&lt;/font&gt;&lt;/div&gt;&lt;span style=&quot;font-family: &amp;#34;helvetica neue&amp;#34; , &amp;#34;helvetica&amp;#34; , &amp;#34;pingfang sc&amp;#34; , &amp;#34;microsoft yahei&amp;#34; , &amp;#34;source han sans sc&amp;#34; , &amp;#34;noto sans cjk sc&amp;#34; , &amp;#34;wenquanyi micro hei&amp;#34; , sans-serif ; font-size: 18px ; text-align: left&quot;&gt;(底层能力)&lt;/span&gt;" style="rounded=1;whiteSpace=wrap;html=1;fillColor=#ffcd28;strokeColor=#d79b00;gradientColor=#ffa500;fontColor=#000000;" parent="506" vertex="1">
                    <mxGeometry x="15" y="20" width="200" height="70" as="geometry"/>
                </mxCell>
                <mxCell id="454" value="&lt;span style=&quot;font-family: &amp;#34;helvetica neue&amp;#34; , &amp;#34;helvetica&amp;#34; , &amp;#34;pingfang sc&amp;#34; , &amp;#34;microsoft yahei&amp;#34; , &amp;#34;source han sans sc&amp;#34; , &amp;#34;noto sans cjk sc&amp;#34; , &amp;#34;wenquanyi micro hei&amp;#34; , sans-serif ; font-size: 13.3333px ; text-align: left&quot;&gt;播放器&lt;/span&gt;" style="rounded=1;whiteSpace=wrap;html=1;fillColor=#647687;strokeColor=#314354;fontColor=#ffffff;" parent="506" vertex="1">
                    <mxGeometry x="225" y="17.5" width="110" height="30" as="geometry"/>
                </mxCell>
                <mxCell id="455" value="&lt;div style=&quot;text-align: left&quot;&gt;&lt;span style=&quot;font-size: 13.3333px&quot;&gt;&lt;font face=&quot;helvetica neue, helvetica, pingfang sc, microsoft yahei, source han sans sc, noto sans cjk sc, wenquanyi micro hei, sans-serif&quot;&gt;文档&lt;/font&gt;&lt;/span&gt;&lt;/div&gt;" style="rounded=1;whiteSpace=wrap;html=1;fillColor=#647687;strokeColor=#314354;fontColor=#ffffff;" parent="506" vertex="1">
                    <mxGeometry x="345" y="17.5" width="110" height="30" as="geometry"/>
                </mxCell>
                <mxCell id="456" value="&lt;div style=&quot;text-align: left&quot;&gt;&lt;span style=&quot;font-size: 13.3333px&quot;&gt;&lt;font face=&quot;helvetica neue, helvetica, pingfang sc, microsoft yahei, source han sans sc, noto sans cjk sc, wenquanyi micro hei, sans-serif&quot;&gt;白板&lt;/font&gt;&lt;/span&gt;&lt;/div&gt;" style="rounded=1;whiteSpace=wrap;html=1;fillColor=#647687;strokeColor=#314354;fontColor=#ffffff;arcSize=0;" parent="506" vertex="1">
                    <mxGeometry x="465" y="17.5" width="110" height="30" as="geometry"/>
                </mxCell>
                <mxCell id="457" value="&lt;div style=&quot;text-align: left&quot;&gt;消息&lt;/div&gt;" style="rounded=1;whiteSpace=wrap;html=1;fillColor=#647687;strokeColor=#314354;fontColor=#ffffff;arcSize=0;" parent="506" vertex="1">
                    <mxGeometry x="585" y="17.5" width="110" height="30" as="geometry"/>
                </mxCell>
                <mxCell id="458" value="&lt;div style=&quot;text-align: left&quot;&gt;&lt;font face=&quot;helvetica neue, helvetica, pingfang sc, microsoft yahei, source han sans sc, noto sans cjk sc, wenquanyi micro hei, sans-serif&quot;&gt;&lt;span style=&quot;font-size: 13.3333px&quot;&gt;互动&lt;/span&gt;&lt;/font&gt;&lt;/div&gt;" style="rounded=1;whiteSpace=wrap;html=1;fillColor=#647687;strokeColor=#314354;fontColor=#ffffff;arcSize=0;" parent="506" vertex="1">
                    <mxGeometry x="705" y="17.5" width="110" height="30" as="geometry"/>
                </mxCell>
                <mxCell id="463" value="&lt;div style=&quot;text-align: left&quot;&gt;&lt;font face=&quot;helvetica neue, helvetica, pingfang sc, microsoft yahei, source han sans sc, noto sans cjk sc, wenquanyi micro hei, sans-serif&quot;&gt;&lt;span style=&quot;font-size: 13.3333px&quot;&gt;...&lt;/span&gt;&lt;/font&gt;&lt;/div&gt;" style="rounded=1;whiteSpace=wrap;html=1;fillColor=#647687;strokeColor=#314354;fontColor=#ffffff;" parent="506" vertex="1">
                    <mxGeometry x="225" y="62.5" width="110" height="30" as="geometry"/>
                </mxCell>
                <mxCell id="507" value="" style="group" parent="514" vertex="1" connectable="0">
                    <mxGeometry y="130" width="835" height="110" as="geometry"/>
                </mxCell>
                <mxCell id="438" value="" style="rounded=1;whiteSpace=wrap;html=1;dashed=1;labelBackgroundColor=none;fontSize=24;strokeColor=#6c8ebf;strokeWidth=2;fillColor=#dae8fc;" parent="507" vertex="1">
                    <mxGeometry width="835" height="110" as="geometry"/>
                </mxCell>
                <mxCell id="439" value="&lt;div style=&quot;text-align: left&quot;&gt;&lt;font face=&quot;helvetica neue, helvetica, pingfang sc, microsoft yahei, source han sans sc, noto sans cjk sc, wenquanyi micro hei, sans-serif&quot;&gt;&lt;span style=&quot;font-size: 18px&quot;&gt;服务(业务逻辑)&lt;/span&gt;&lt;/font&gt;&lt;/div&gt;" style="rounded=1;whiteSpace=wrap;html=1;fillColor=#ffcd28;strokeColor=#d79b00;gradientColor=#ffa500;fontColor=#000000;" parent="507" vertex="1">
                    <mxGeometry x="15" y="17.5" width="200" height="75" as="geometry"/>
                </mxCell>
                <mxCell id="440" value="&lt;div style=&quot;text-align: left&quot;&gt;&lt;font face=&quot;helvetica neue, helvetica, pingfang sc, microsoft yahei, source han sans sc, noto sans cjk sc, wenquanyi micro hei, sans-serif&quot;&gt;&lt;span style=&quot;font-size: 13.3333px&quot;&gt;直播房间&lt;/span&gt;&lt;/font&gt;&lt;/div&gt;" style="rounded=1;whiteSpace=wrap;html=1;fillColor=#647687;strokeColor=#314354;fontColor=#ffffff;" parent="507" vertex="1">
                    <mxGeometry x="225" y="17.50000000000003" width="110" height="30" as="geometry"/>
                </mxCell>
                <mxCell id="441" value="&lt;div style=&quot;text-align: left&quot;&gt;&lt;span style=&quot;font-size: 13.3333px&quot;&gt;&lt;font face=&quot;helvetica neue, helvetica, pingfang sc, microsoft yahei, source han sans sc, noto sans cjk sc, wenquanyi micro hei, sans-serif&quot;&gt;聊天&lt;/font&gt;&lt;/span&gt;&lt;/div&gt;" style="rounded=1;whiteSpace=wrap;html=1;fillColor=#647687;strokeColor=#314354;fontColor=#ffffff;" parent="507" vertex="1">
                    <mxGeometry x="345" y="17.50000000000003" width="110" height="30" as="geometry"/>
                </mxCell>
                <mxCell id="442" value="&lt;span style=&quot;font-family: &amp;#34;helvetica neue&amp;#34; , &amp;#34;helvetica&amp;#34; , &amp;#34;pingfang sc&amp;#34; , &amp;#34;microsoft yahei&amp;#34; , &amp;#34;source han sans sc&amp;#34; , &amp;#34;noto sans cjk sc&amp;#34; , &amp;#34;wenquanyi micro hei&amp;#34; , sans-serif ; font-size: 13.3333px ; text-align: left&quot;&gt;互动工具类&lt;/span&gt;" style="rounded=1;whiteSpace=wrap;html=1;fillColor=#647687;strokeColor=#314354;fontColor=#ffffff;arcSize=0;" parent="507" vertex="1">
                    <mxGeometry x="465" y="17.50000000000003" width="110" height="30" as="geometry"/>
                </mxCell>
                <mxCell id="443" value="&lt;span style=&quot;font-family: &amp;#34;helvetica neue&amp;#34; , &amp;#34;helvetica&amp;#34; , &amp;#34;pingfang sc&amp;#34; , &amp;#34;microsoft yahei&amp;#34; , &amp;#34;source han sans sc&amp;#34; , &amp;#34;noto sans cjk sc&amp;#34; , &amp;#34;wenquanyi micro hei&amp;#34; , sans-serif ; font-size: 13.3333px ; text-align: left&quot;&gt;红包&lt;/span&gt;" style="rounded=1;whiteSpace=wrap;html=1;fillColor=#647687;strokeColor=#314354;fontColor=#ffffff;arcSize=0;" parent="507" vertex="1">
                    <mxGeometry x="585" y="17.50000000000003" width="110" height="30" as="geometry"/>
                </mxCell>
                <mxCell id="444" value="&lt;div style=&quot;text-align: left&quot;&gt;&lt;span style=&quot;font-size: 13.3333px&quot;&gt;&lt;font face=&quot;helvetica neue, helvetica, pingfang sc, microsoft yahei, source han sans sc, noto sans cjk sc, wenquanyi micro hei, sans-serif&quot;&gt;抽奖&lt;/font&gt;&lt;/span&gt;&lt;/div&gt;" style="rounded=1;whiteSpace=wrap;html=1;fillColor=#647687;strokeColor=#314354;fontColor=#ffffff;arcSize=0;" parent="507" vertex="1">
                    <mxGeometry x="705" y="17.50000000000003" width="110" height="30" as="geometry"/>
                </mxCell>
                <mxCell id="445" value="&lt;div style=&quot;text-align: left&quot;&gt;&lt;span style=&quot;font-size: 13.3333px&quot;&gt;&lt;font face=&quot;helvetica neue, helvetica, pingfang sc, microsoft yahei, source han sans sc, noto sans cjk sc, wenquanyi micro hei, sans-serif&quot;&gt;连麦互动&lt;/font&gt;&lt;/span&gt;&lt;/div&gt;" style="rounded=1;whiteSpace=wrap;html=1;fillColor=#647687;strokeColor=#314354;fontColor=#ffffff;" parent="507" vertex="1">
                    <mxGeometry x="225" y="62.50000000000003" width="110" height="30" as="geometry"/>
                </mxCell>
                <mxCell id="446" value="&lt;span style=&quot;font-family: &amp;#34;helvetica neue&amp;#34; , &amp;#34;helvetica&amp;#34; , &amp;#34;pingfang sc&amp;#34; , &amp;#34;microsoft yahei&amp;#34; , &amp;#34;source han sans sc&amp;#34; , &amp;#34;noto sans cjk sc&amp;#34; , &amp;#34;wenquanyi micro hei&amp;#34; , sans-serif ; font-size: 13.3333px ; text-align: left&quot;&gt;预约&lt;/span&gt;" style="rounded=1;whiteSpace=wrap;html=1;fillColor=#647687;strokeColor=#314354;fontColor=#ffffff;" parent="507" vertex="1">
                    <mxGeometry x="345" y="62.50000000000003" width="110" height="30" as="geometry"/>
                </mxCell>
                <mxCell id="447" value="&lt;span style=&quot;font-family: &amp;#34;helvetica neue&amp;#34; , &amp;#34;helvetica&amp;#34; , &amp;#34;pingfang sc&amp;#34; , &amp;#34;microsoft yahei&amp;#34; , &amp;#34;source han sans sc&amp;#34; , &amp;#34;noto sans cjk sc&amp;#34; , &amp;#34;wenquanyi micro hei&amp;#34; , sans-serif ; font-size: 13.3333px ; text-align: left&quot;&gt;邀请卡&lt;/span&gt;" style="rounded=1;whiteSpace=wrap;html=1;fillColor=#647687;strokeColor=#314354;fontColor=#ffffff;" parent="507" vertex="1">
                    <mxGeometry x="465" y="62.50000000000003" width="110" height="30" as="geometry"/>
                </mxCell>
                <mxCell id="448" value="&lt;span style=&quot;font-family: &amp;#34;helvetica neue&amp;#34; , &amp;#34;helvetica&amp;#34; , &amp;#34;pingfang sc&amp;#34; , &amp;#34;microsoft yahei&amp;#34; , &amp;#34;source han sans sc&amp;#34; , &amp;#34;noto sans cjk sc&amp;#34; , &amp;#34;wenquanyi micro hei&amp;#34; , sans-serif ; font-size: 13.3333px ; text-align: left&quot;&gt;分享&lt;/span&gt;" style="rounded=1;whiteSpace=wrap;html=1;fillColor=#647687;strokeColor=#314354;fontColor=#ffffff;" parent="507" vertex="1">
                    <mxGeometry x="585" y="62.50000000000003" width="110" height="30" as="geometry"/>
                </mxCell>
                <mxCell id="449" value="&lt;div style=&quot;text-align: left&quot;&gt;&lt;font face=&quot;helvetica neue, helvetica, pingfang sc, microsoft yahei, source han sans sc, noto sans cjk sc, wenquanyi micro hei, sans-serif&quot;&gt;&lt;span style=&quot;font-size: 13.3333px&quot;&gt;...&lt;/span&gt;&lt;/font&gt;&lt;/div&gt;" style="rounded=1;whiteSpace=wrap;html=1;fillColor=#647687;strokeColor=#314354;fontColor=#ffffff;" parent="507" vertex="1">
                    <mxGeometry x="705" y="62.50000000000003" width="110" height="30" as="geometry"/>
                </mxCell>
                <mxCell id="512" value="" style="group" parent="514" vertex="1" connectable="0">
                    <mxGeometry width="835" height="110" as="geometry"/>
                </mxCell>
                <mxCell id="412" value="" style="rounded=1;whiteSpace=wrap;html=1;dashed=1;labelBackgroundColor=none;fontSize=24;strokeColor=#10739e;strokeWidth=2;fillColor=#b1ddf0;" parent="512" vertex="1">
                    <mxGeometry width="835" height="110" as="geometry"/>
                </mxCell>
                <mxCell id="191" value="&lt;div style=&quot;text-align: left&quot;&gt;&lt;span style=&quot;font-size: 18px&quot;&gt;&lt;font face=&quot;helvetica neue, helvetica, pingfang sc, microsoft yahei, source han sans sc, noto sans cjk sc, wenquanyi micro hei, sans-serif&quot;&gt;API(接口服务)&lt;/font&gt;&lt;/span&gt;&lt;/div&gt;" style="rounded=1;whiteSpace=wrap;html=1;fillColor=#ffcd28;strokeColor=#d79b00;gradientColor=#ffa500;fontColor=#000000;" parent="512" vertex="1">
                    <mxGeometry x="15" y="16" width="200" height="75" as="geometry"/>
                </mxCell>
                <mxCell id="309" value="&lt;span style=&quot;font-family: &amp;#34;helvetica neue&amp;#34; , &amp;#34;helvetica&amp;#34; , &amp;#34;pingfang sc&amp;#34; , &amp;#34;microsoft yahei&amp;#34; , &amp;#34;source han sans sc&amp;#34; , &amp;#34;noto sans cjk sc&amp;#34; , &amp;#34;wenquanyi micro hei&amp;#34; , sans-serif ; font-size: 13.3333px ; text-align: left&quot;&gt;房间&lt;/span&gt;" style="rounded=1;whiteSpace=wrap;html=1;fillColor=#647687;strokeColor=#314354;fontColor=#ffffff;" parent="512" vertex="1">
                    <mxGeometry x="225" y="16" width="110" height="30" as="geometry"/>
                </mxCell>
                <mxCell id="413" value="&lt;span style=&quot;font-family: &amp;#34;helvetica neue&amp;#34; , &amp;#34;helvetica&amp;#34; , &amp;#34;pingfang sc&amp;#34; , &amp;#34;microsoft yahei&amp;#34; , &amp;#34;source han sans sc&amp;#34; , &amp;#34;noto sans cjk sc&amp;#34; , &amp;#34;wenquanyi micro hei&amp;#34; , sans-serif ; font-size: 13.3333px ; text-align: left&quot;&gt;聊天&lt;/span&gt;" style="rounded=1;whiteSpace=wrap;html=1;fillColor=#647687;strokeColor=#314354;fontColor=#ffffff;" parent="512" vertex="1">
                    <mxGeometry x="345" y="15.000000000000028" width="110" height="30" as="geometry"/>
                </mxCell>
                <mxCell id="414" value="&lt;span style=&quot;font-family: &amp;#34;helvetica neue&amp;#34; , &amp;#34;helvetica&amp;#34; , &amp;#34;pingfang sc&amp;#34; , &amp;#34;microsoft yahei&amp;#34; , &amp;#34;source han sans sc&amp;#34; , &amp;#34;noto sans cjk sc&amp;#34; , &amp;#34;wenquanyi micro hei&amp;#34; , sans-serif ; font-size: 13.3333px ; text-align: left&quot;&gt;互动&lt;/span&gt;" style="rounded=1;whiteSpace=wrap;html=1;fillColor=#647687;strokeColor=#314354;fontColor=#ffffff;arcSize=0;" parent="512" vertex="1">
                    <mxGeometry x="465" y="15.000000000000028" width="110" height="30" as="geometry"/>
                </mxCell>
                <mxCell id="415" value="&lt;span style=&quot;font-family: &amp;#34;helvetica neue&amp;#34; , &amp;#34;helvetica&amp;#34; , &amp;#34;pingfang sc&amp;#34; , &amp;#34;microsoft yahei&amp;#34; , &amp;#34;source han sans sc&amp;#34; , &amp;#34;noto sans cjk sc&amp;#34; , &amp;#34;wenquanyi micro hei&amp;#34; , sans-serif ; font-size: 13.3333px ; text-align: left&quot;&gt;连麦&lt;/span&gt;" style="rounded=1;whiteSpace=wrap;html=1;fillColor=#647687;strokeColor=#314354;fontColor=#ffffff;arcSize=0;" parent="512" vertex="1">
                    <mxGeometry x="585" y="15.000000000000028" width="110" height="30" as="geometry"/>
                </mxCell>
                <mxCell id="416" value="&lt;span style=&quot;font-family: &amp;#34;helvetica neue&amp;#34; , &amp;#34;helvetica&amp;#34; , &amp;#34;pingfang sc&amp;#34; , &amp;#34;microsoft yahei&amp;#34; , &amp;#34;source han sans sc&amp;#34; , &amp;#34;noto sans cjk sc&amp;#34; , &amp;#34;wenquanyi micro hei&amp;#34; , sans-serif ; font-size: 13.3333px ; text-align: left&quot;&gt;录制&lt;/span&gt;" style="rounded=1;whiteSpace=wrap;html=1;fillColor=#647687;strokeColor=#314354;fontColor=#ffffff;arcSize=0;" parent="512" vertex="1">
                    <mxGeometry x="705" y="15.000000000000028" width="110" height="30" as="geometry"/>
                </mxCell>
                <mxCell id="417" value="&lt;span style=&quot;font-family: &amp;#34;helvetica neue&amp;#34; , &amp;#34;helvetica&amp;#34; , &amp;#34;pingfang sc&amp;#34; , &amp;#34;microsoft yahei&amp;#34; , &amp;#34;source han sans sc&amp;#34; , &amp;#34;noto sans cjk sc&amp;#34; , &amp;#34;wenquanyi micro hei&amp;#34; , sans-serif ; font-size: 13.3333px ; text-align: left&quot;&gt;转播&lt;/span&gt;" style="rounded=1;whiteSpace=wrap;html=1;fillColor=#647687;strokeColor=#314354;fontColor=#ffffff;" parent="512" vertex="1">
                    <mxGeometry x="225" y="60.00000000000003" width="110" height="30" as="geometry"/>
                </mxCell>
                <mxCell id="418" value="&lt;span style=&quot;font-family: &amp;#34;helvetica neue&amp;#34; , &amp;#34;helvetica&amp;#34; , &amp;#34;pingfang sc&amp;#34; , &amp;#34;microsoft yahei&amp;#34; , &amp;#34;source han sans sc&amp;#34; , &amp;#34;noto sans cjk sc&amp;#34; , &amp;#34;wenquanyi micro hei&amp;#34; , sans-serif ; font-size: 13.3333px ; text-align: left&quot;&gt;分组&lt;/span&gt;" style="rounded=1;whiteSpace=wrap;html=1;fillColor=#647687;strokeColor=#314354;fontColor=#ffffff;" parent="512" vertex="1">
                    <mxGeometry x="345" y="60.00000000000003" width="110" height="30" as="geometry"/>
                </mxCell>
                <mxCell id="419" value="&lt;div style=&quot;text-align: left&quot;&gt;&lt;span style=&quot;font-size: 13.3333px&quot;&gt;&lt;font face=&quot;helvetica neue, helvetica, pingfang sc, microsoft yahei, source han sans sc, noto sans cjk sc, wenquanyi micro hei, sans-serif&quot;&gt;互动连麦&lt;/font&gt;&lt;/span&gt;&lt;/div&gt;" style="rounded=1;whiteSpace=wrap;html=1;fillColor=#647687;strokeColor=#314354;fontColor=#ffffff;" parent="512" vertex="1">
                    <mxGeometry x="465" y="60.00000000000003" width="110" height="30" as="geometry"/>
                </mxCell>
                <mxCell id="420" value="&lt;span style=&quot;font-family: &amp;#34;helvetica neue&amp;#34; , &amp;#34;helvetica&amp;#34; , &amp;#34;pingfang sc&amp;#34; , &amp;#34;microsoft yahei&amp;#34; , &amp;#34;source han sans sc&amp;#34; , &amp;#34;noto sans cjk sc&amp;#34; , &amp;#34;wenquanyi micro hei&amp;#34; , sans-serif ; font-size: 13.3333px ; text-align: left&quot;&gt;消息处理&lt;/span&gt;" style="rounded=1;whiteSpace=wrap;html=1;fillColor=#647687;strokeColor=#314354;fontColor=#ffffff;" parent="512" vertex="1">
                    <mxGeometry x="585" y="60.00000000000003" width="110" height="30" as="geometry"/>
                </mxCell>
                <mxCell id="421" value="&lt;div style=&quot;text-align: left&quot;&gt;&lt;font face=&quot;helvetica neue, helvetica, pingfang sc, microsoft yahei, source han sans sc, noto sans cjk sc, wenquanyi micro hei, sans-serif&quot;&gt;&lt;span style=&quot;font-size: 13.3333px&quot;&gt;...&lt;/span&gt;&lt;/font&gt;&lt;/div&gt;" style="rounded=1;whiteSpace=wrap;html=1;fillColor=#647687;strokeColor=#314354;fontColor=#ffffff;" parent="512" vertex="1">
                    <mxGeometry x="705" y="60.00000000000003" width="110" height="30" as="geometry"/>
                </mxCell>
                <mxCell id="540" value="" style="shape=singleArrow;direction=north;whiteSpace=wrap;html=1;fillColor=#60a917;fontColor=#ffffff;strokeColor=#2D7600;" vertex="1" parent="1">
                    <mxGeometry x="150" y="240" width="60" height="70" as="geometry"/>
                </mxCell>
                <mxCell id="541" value="" style="shape=singleArrow;direction=north;whiteSpace=wrap;html=1;fillColor=#60a917;fontColor=#ffffff;strokeColor=#2D7600;" vertex="1" parent="1">
                    <mxGeometry x="360" y="240" width="60" height="70" as="geometry"/>
                </mxCell>
                <mxCell id="542" value="" style="shape=singleArrow;direction=north;whiteSpace=wrap;html=1;fillColor=#60a917;fontColor=#ffffff;strokeColor=#2D7600;" vertex="1" parent="1">
                    <mxGeometry x="570" y="240" width="60" height="70" as="geometry"/>
                </mxCell>
                <mxCell id="543" value="" style="shape=singleArrow;direction=north;whiteSpace=wrap;html=1;fillColor=#60a917;fontColor=#ffffff;strokeColor=#2D7600;" vertex="1" parent="1">
                    <mxGeometry x="780" y="240" width="60" height="70" as="geometry"/>
                </mxCell>
            </root>
        </mxGraphModel>
    </diagram>
</mxfile>